<svg width="100" height="100" viewBox="0 0 100 100" fill="none" xmlns="http://www.w3.org/2000/svg">
<path fill-rule="evenodd" clip-rule="evenodd" d="M25.5 29C25.5 27.067 27.067 25.5 29 25.5H45.5C46.0523 25.5 46.5 25.9477 46.5 26.5V31.5C46.5 32.0523 46.0523 32.5 45.5 32.5H32.5V67.5H45.5C46.0523 67.5 46.5 67.9477 46.5 68.5V73.5C46.5 74.0523 46.0523 74.5 45.5 74.5H29C27.067 74.5 25.5 72.933 25.5 71V29Z" fill="#0ACF83"/>
<path fill-rule="evenodd" clip-rule="evenodd" d="M74.5 71C74.5 72.933 72.933 74.5 71 74.5L54.5 74.5C53.9477 74.5 53.5 74.0523 53.5 73.5L53.5 68.5C53.5 67.9477 53.9477 67.5 54.5 67.5L67.5 67.5L67.5 32.5L54.5 32.5C53.9477 32.5 53.5 32.0523 53.5 31.5L53.5 26.5C53.5 25.9477 53.9477 25.5 54.5 25.5L71 25.5C72.933 25.5 74.5 27.067 74.5 29L74.5 71Z" fill="#0ACF83"/>
</svg>
