<svg width="100" height="100" viewBox="0 0 100 100" fill="none" xmlns="http://www.w3.org/2000/svg">
<path d="M40.1947 73C40.1947 74.1046 39.2985 75.0049 38.1946 74.9689C35.5995 74.8843 33.5153 74.6271 31.9419 74.1973C30.0246 73.6621 28.6908 72.8211 27.9405 71.6743C27.1903 70.5275 26.8152 69.0367 26.8152 67.2018V58.3716C26.8152 57.1483 26.5026 56.1735 25.8773 55.4472C25.2938 54.7209 24.4185 54.2049 23.2514 53.8991C22.8648 53.7809 22.4438 53.683 21.9883 53.6054C20.3549 53.3272 19 52.0399 19 50.383V49.6743C19 48.0175 20.3526 46.7246 21.9907 46.4763C22.4453 46.4074 22.8655 46.3205 23.2514 46.2156C24.4185 45.8716 25.2938 45.3364 25.8773 44.6101C26.5026 43.8456 26.8152 42.8708 26.8152 41.6858V32.7982C26.8152 31.422 27.0027 30.237 27.3778 29.2431C27.7947 28.2492 28.5032 27.4465 29.5036 26.8349C30.5039 26.2232 31.8585 25.7645 33.5675 25.4587C34.86 25.2329 36.4024 25.0905 38.1947 25.0314C39.2987 24.995 40.1947 25.8954 40.1947 27V29.3073C40.1947 30.4119 39.2914 31.2739 38.2032 31.4635C37.9137 31.5139 37.6397 31.5765 37.3813 31.6514C36.5893 31.8807 35.9641 32.2821 35.5056 32.8555C35.0888 33.3907 34.8804 34.1934 34.8804 35.2638V43.6353C34.8804 45.3937 34.276 46.789 33.0673 47.8211C31.8585 48.8532 30.0871 49.5222 27.753 49.828V50.172C30.0871 50.4778 31.8585 51.1468 33.0673 52.1789C34.276 53.211 34.8804 54.6063 34.8804 56.3647V64.7362C34.8804 65.8066 35.0888 66.6093 35.5056 67.1445C35.9641 67.7179 36.5893 68.1002 37.3813 68.2913C37.6611 68.3723 37.9591 68.4414 38.2754 68.4986C39.3353 68.6903 40.1947 69.5462 40.1947 70.6234V73Z" fill="#4353FF"/>
<path d="M59.8053 70.6234C59.8053 69.5462 60.6647 68.6903 61.7246 68.4986C62.0409 68.4414 62.3389 68.3723 62.6187 68.2913C63.4107 68.1002 64.0151 67.7179 64.4319 67.1445C64.8904 66.6093 65.1196 65.8066 65.1196 64.7362V56.3647C65.1196 54.6063 65.724 53.211 66.9327 52.1789C68.1831 51.1468 69.9546 50.4778 72.247 50.172V49.828C69.9546 49.5222 68.1831 48.8532 66.9327 47.8211C65.724 46.789 65.1196 45.3937 65.1196 43.6353V35.2638C65.1196 34.1934 64.8904 33.3907 64.4319 32.8555C64.0151 32.2821 63.4107 31.8807 62.6187 31.6514C62.3603 31.5765 62.0863 31.5139 61.7968 31.4635C60.7086 31.2739 59.8053 30.4119 59.8053 29.3073V27C59.8053 25.8954 60.7013 24.9949 61.8053 25.0316C63.5877 25.0907 65.1093 25.2331 66.37 25.4587C68.1206 25.7645 69.4961 26.2232 70.4964 26.8349C71.4968 27.4465 72.1845 28.2492 72.5596 29.2431C72.9764 30.237 73.1848 31.422 73.1848 32.7982V41.6858C73.1848 42.8708 73.4766 43.8456 74.0601 44.6101C74.6854 45.3364 75.5815 45.8716 76.7486 46.2156C77.1406 46.3183 77.561 46.4038 78.0095 46.472C79.6475 46.7212 81 48.0175 81 49.6743V50.383C81 52.0399 79.6452 53.331 78.012 53.6101C77.5625 53.687 77.1414 53.7833 76.7486 53.8991C75.5815 54.2049 74.6854 54.7209 74.0601 55.4472C73.4766 56.1735 73.1848 57.1483 73.1848 58.3716V67.2018C73.1848 69.0367 72.8097 70.5275 72.0595 71.6743C71.3092 72.8211 69.9754 73.6621 68.0581 74.1973C66.5143 74.6282 64.4301 74.8856 61.8054 74.9695C60.7014 75.0048 59.8053 74.1046 59.8053 73V70.6234Z" fill="#4353FF"/>
</svg>
