<svg width="100" height="100" viewBox="0 0 100 100" fill="none" xmlns="http://www.w3.org/2000/svg">
<path d="M31.358 37.9026C31.358 37.3503 30.9103 36.9026 30.358 36.9026H27.1807C26.777 36.9026 26.4174 37.1483 26.2386 37.5102C25.0957 39.8249 23.2934 41.0707 19.8302 41.0707V41.0707C19.291 41.0707 18.8539 41.5078 18.8539 42.047V45.5154C18.8539 46.0677 19.3016 46.5154 19.8539 46.5154H20.0555C22.4962 46.5154 24.2986 45.9146 25.3876 44.9759V58.1559H19.7412C19.1889 58.1559 18.7412 58.6036 18.7412 59.1559V61.9999C18.7412 62.5521 19.1889 62.9999 19.7412 62.9999H36.6289C37.1811 62.9999 37.6289 62.5521 37.6289 61.9999V59.1559C37.6289 58.6036 37.1811 58.1559 36.6289 58.1559H31.358V37.9026Z" fill="#A259FF"/>
<path d="M58.2996 62.9999C58.8519 62.9999 59.2996 62.5521 59.2996 61.9999V59.1935C59.2996 58.6412 58.8519 58.1935 58.2996 58.1935H47.9595C50.6256 56.3911 52.6908 54.7013 54.6434 52.7863C57.5348 49.8949 58.8115 47.3415 58.8115 44.2624C58.8115 39.1932 55.6573 36.3394 49.837 36.3394C44.2421 36.3394 40.6373 39.5311 40.6373 44.3751C40.6373 44.6173 40.6481 44.8488 40.6757 45.1044C40.723 45.5433 41.088 45.8716 41.527 45.9186L45.4209 46.3349C46.0872 46.4061 46.6313 45.8134 46.5877 45.1448C46.5763 44.9696 46.5702 44.7991 46.5702 44.6379C46.5702 42.4225 47.7342 41.1082 49.7244 41.1082C51.6394 41.1082 52.7659 42.3098 52.7659 44.4877C52.7659 46.8158 51.7896 48.6933 49.3864 51.0965C46.8539 53.5943 43.7765 56.2204 41.161 58.1159C40.7643 58.4034 40.5246 58.8609 40.5246 59.3508V61.9999C40.5246 62.5521 40.9723 62.9999 41.5246 62.9999H58.2996Z" fill="#A259FF"/>
<path d="M72.8596 63.5631C78.6798 63.5631 82.4348 60.5216 82.4348 55.9405C82.4348 52.2981 80.3696 50.1202 77.0276 49.4068C79.8814 48.6933 81.7589 46.2526 81.7589 43.3612C81.7589 39.0805 78.4545 36.3394 72.8971 36.3394C67.0724 36.3394 63.5376 39.1603 63.1351 43.6165C63.0902 44.1141 63.4654 44.5384 63.9603 44.6065L67.9683 45.1576C68.5691 45.2402 69.0949 44.7699 69.1784 44.1693C69.4718 42.0599 70.6348 40.958 72.5967 40.958C74.6244 40.958 75.7134 42.1221 75.7134 44.1873C75.7134 46.2526 74.4367 47.6795 72.071 47.6795H71.8319C71.2796 47.6795 70.8319 48.1272 70.8319 48.6795V50.81C70.8319 51.3622 71.2796 51.81 71.8319 51.81H72.1461C74.8122 51.81 76.2766 53.1618 76.2766 55.2646C76.2766 57.5551 75.075 58.9069 72.7845 58.9069C70.6527 58.9069 69.41 57.6289 69.0564 55.5747C68.9584 55.0056 68.4676 54.5586 67.8926 54.6119L63.7857 54.9921C63.2686 55.04 62.8682 55.4771 62.9182 55.994C63.3655 60.6149 66.9696 63.5631 72.8596 63.5631Z" fill="#A259FF"/>
</svg>
