<svg width="223" height="42" viewBox="0 0 223 42" fill="none" xmlns="http://www.w3.org/2000/svg">
<path d="M93.975 32V20.5943C93.975 16.9409 95.7571 14.8469 98.9204 14.8469C102.307 14.8469 103.465 16.7627 103.465 21.1735V32H108.321V18.9458C108.321 13.5103 105.737 10.7034 100.747 10.7034C97.6729 10.7034 95.267 11.9063 93.975 14.134V11.238H89.1187V32H93.975Z" fill="#56241F"/>
<path d="M132.265 20.5497C132.265 14.7132 128.255 10.7034 122.329 10.7034C116.003 10.7034 111.904 14.9805 111.904 21.619C111.904 28.3466 115.958 32.5347 122.507 32.5347C127.497 32.5347 131.418 29.8169 132.042 25.9407H127.141C126.339 27.5447 124.913 28.3021 122.507 28.3021C118.988 28.3021 116.849 26.5199 116.715 23.223H132.131C132.22 22.0646 132.265 21.3963 132.265 20.5497ZM116.715 19.525C116.76 16.5845 118.809 14.535 122.24 14.535C125.582 14.535 127.453 16.3171 127.497 19.525H116.715Z" fill="#56241F"/>
<path d="M144.063 32L149.098 17.2082L154.132 32H158.231L165.894 11.238H160.548L156.226 24.9605L151.726 11.238H146.469L141.969 24.9605L137.647 11.238H132.301L139.964 32H144.063Z" fill="#56241F"/>
<path d="M180.137 10.7034C177.196 10.7034 174.434 12.04 173.142 14.0449V0.8125H168.33V32H173.142V29.1931C174.434 31.198 177.063 32.5347 179.825 32.5347C185.84 32.5347 190.028 28.0347 190.028 21.619C190.028 15.0697 186.062 10.7034 180.137 10.7034ZM179.112 28.213C175.459 28.213 172.964 25.5397 172.964 21.619C172.964 17.6983 175.459 15.0251 179.112 15.0251C182.676 15.0251 185.171 17.7429 185.171 21.619C185.171 25.4952 182.676 28.213 179.112 28.213Z" fill="#56241F"/>
<path d="M196.212 8.25295C198.35 8.25295 199.82 6.64902 199.82 4.64411C199.82 2.6392 198.35 1.03527 196.212 1.03527C194.073 1.03527 192.603 2.6392 192.603 4.64411C192.603 6.64902 194.073 8.25295 196.212 8.25295ZM198.617 32V11.238H193.806V32H198.617Z" fill="#56241F"/>
<path d="M222.768 20.5497C222.768 14.7132 218.758 10.7034 212.832 10.7034C206.506 10.7034 202.407 14.9805 202.407 21.619C202.407 28.3466 206.461 32.5347 213.01 32.5347C218 32.5347 221.921 29.8169 222.545 25.9407H217.644C216.842 27.5447 215.416 28.3021 213.01 28.3021C209.491 28.3021 207.352 26.5199 207.218 23.223H222.634C222.723 22.0646 222.768 21.3963 222.768 20.5497ZM207.218 19.525C207.263 16.5845 209.312 14.535 212.743 14.535C216.085 14.535 217.956 16.3171 218 19.525H207.218Z" fill="#56241F"/>
<path d="M4.97512 32V22.822C4.97512 18.0993 7.06913 15.5152 10.4998 15.5152C11.2572 15.5152 11.6582 15.5152 12.4156 15.6043V11.1489C11.8809 11.0153 11.2572 10.9707 10.4998 10.9707C8.22753 10.9707 5.73253 12.3073 4.97512 15.2479V11.238H0.118774V32H4.97512Z" fill="#F84E3B"/>
<path d="M23.0287 32.5347C26.0138 32.5347 28.1969 31.3317 29.4444 29.104V32H34.3008V11.238H29.4444V22.9556C29.4444 25.9407 28.1078 28.3912 24.4099 28.3912C21.2466 28.3912 20.1773 26.4308 20.1773 23.0893V11.238H15.3209V24.2922C15.3209 29.8614 18.4843 32.5347 23.0287 32.5347Z" fill="#F84E3B"/>
<path d="M51.4337 10.7034C48.4932 10.7034 45.7309 12.04 44.4388 14.0449V0.8125H39.627V32H44.4388V29.1931C45.7309 31.198 48.3595 32.5347 51.1218 32.5347C57.1366 32.5347 61.3246 28.0347 61.3246 21.619C61.3246 15.0697 57.3593 10.7034 51.4337 10.7034ZM50.409 28.213C46.7556 28.213 44.2606 25.5397 44.2606 21.619C44.2606 17.6983 46.7556 15.0251 50.409 15.0251C53.9733 15.0251 56.4683 17.7429 56.4683 21.619C56.4683 25.4952 53.9733 28.213 50.409 28.213Z" fill="#F84E3B"/>
<path d="M79.2261 21.9755C79.2261 25.5397 77.6222 28.2575 74.2361 28.2575C70.7609 28.2575 69.7362 25.9407 69.7362 22.8665V11.238H64.8799V23.8913C64.8799 28.8813 67.4194 32.5347 72.5431 32.5347C75.6173 32.5347 77.9341 31.3317 79.2261 29.104V31.7327C79.2261 36.1435 77.1321 37.8811 74.2361 37.8811C71.1174 37.8811 70.0035 36.6336 69.7807 34.3614H64.8799C64.9244 36.6336 65.7264 38.4603 67.1966 39.7523C68.8451 41.1335 71.251 41.8909 74.3252 41.8909C77.2658 41.8909 79.6716 41.0444 81.3647 39.485C83.1023 37.792 84.0825 35.3415 84.0825 32.0891V11.238H79.2261V21.9755Z" fill="#F84E3B"/>
</svg>
