<svg width="178" height="42" viewBox="0 0 178 42" fill="none" xmlns="http://www.w3.org/2000/svg">
<path d="M104.445 14.0449C103.153 11.9509 100.658 10.7034 97.8958 10.7034C91.4355 10.7034 87.5593 15.5152 87.5593 21.619C87.5593 27.7229 91.0791 32.5347 97.7621 32.5347C100.302 32.5347 103.153 31.2872 104.445 29.1931V32H109.257V0.8125H104.445V14.0449ZM98.475 28.213C94.6879 28.213 92.4157 25.4061 92.4157 21.619C92.4157 17.832 94.6879 15.0251 98.475 15.0251C102.618 15.0251 104.623 18.0547 104.623 21.619C104.623 25.1833 102.618 28.213 98.475 28.213Z" fill="white"/>
<path d="M123.995 32.5347C130.856 32.5347 134.955 27.7229 134.955 21.619C134.955 15.5152 130.856 10.7034 123.995 10.7034C117.134 10.7034 113.035 15.5152 113.035 21.619C113.035 27.7229 117.134 32.5347 123.995 32.5347ZM123.995 28.213C120.074 28.213 117.891 25.4061 117.891 21.619C117.891 17.832 120.074 15.0251 123.995 15.0251C127.916 15.0251 130.099 17.832 130.099 21.619C130.099 25.4061 127.916 28.213 123.995 28.213Z" fill="white"/>
<path d="M147.933 32.5347C153.725 32.5347 157.334 29.4605 157.78 24.8269H152.923C152.389 27.01 150.874 28.213 147.933 28.213C144.503 28.213 142.453 25.8516 142.453 21.619C142.453 17.3864 144.503 15.0251 147.933 15.0251C150.874 15.0251 152.389 16.2726 152.923 18.6339H157.78C157.334 13.8667 153.725 10.7034 147.933 10.7034C141.473 10.7034 137.597 15.1588 137.597 21.619C137.597 28.0793 141.473 32.5347 147.933 32.5347Z" fill="white"/>
<path d="M168.848 32.5347C173.883 32.5347 177.046 30.1288 177.046 26.0744C177.046 23.1338 175.175 20.9953 172.234 20.1488L168.091 18.9458C166.175 18.4112 165.507 17.6538 165.507 16.5399C165.507 15.2924 166.754 14.4013 168.492 14.4013C170.764 14.4013 172.101 15.4261 172.101 17.1637H176.868C176.868 13.1538 173.749 10.7034 168.67 10.7034C164.037 10.7034 160.695 13.2875 160.695 16.8072C160.695 19.7478 162.344 21.8418 165.24 22.6438L169.383 23.7576C171.611 24.3368 172.101 25.0497 172.101 26.208C172.101 27.6783 170.942 28.6585 169.116 28.6585C166.621 28.6585 164.883 27.411 164.883 25.6289H160.027C160.027 29.5941 163.769 32.5347 168.848 32.5347Z" fill="white"/>
<path d="M4.97499 32V22.822C4.97499 18.0993 7.06901 15.5152 10.4996 15.5152C11.2571 15.5152 11.658 15.5152 12.4154 15.6043V11.1489C11.8808 11.0153 11.2571 10.9707 10.4996 10.9707C8.22741 10.9707 5.7324 12.3073 4.97499 15.2479V11.238H0.118652V32H4.97499Z" fill="#FF4124"/>
<path d="M23.0286 32.5347C26.0137 32.5347 28.1968 31.3317 29.4443 29.104V32H34.3007V11.238H29.4443V22.9556C29.4443 25.9407 28.1077 28.3912 24.4098 28.3912C21.2465 28.3912 20.1772 26.4308 20.1772 23.0893V11.238H15.3208V24.2922C15.3208 29.8614 18.4841 32.5347 23.0286 32.5347Z" fill="#FF4124"/>
<path d="M51.4336 10.7034C48.4931 10.7034 45.7307 12.04 44.4387 14.0449V0.8125H39.6269V32H44.4387V29.1931C45.7307 31.198 48.3594 32.5347 51.1217 32.5347C57.1365 32.5347 61.3245 28.0347 61.3245 21.619C61.3245 15.0697 57.3592 10.7034 51.4336 10.7034ZM50.4089 28.213C46.7555 28.213 44.2605 25.5397 44.2605 21.619C44.2605 17.6983 46.7555 15.0251 50.4089 15.0251C53.9732 15.0251 56.4682 17.7429 56.4682 21.619C56.4682 25.4952 53.9732 28.213 50.4089 28.213Z" fill="#FF4124"/>
<path d="M79.226 21.9755C79.226 25.5397 77.6221 28.2575 74.236 28.2575C70.7608 28.2575 69.7361 25.9407 69.7361 22.8665V11.238H64.8797V23.8913C64.8797 28.8813 67.4193 32.5347 72.543 32.5347C75.6172 32.5347 77.9339 31.3317 79.226 29.104V31.7327C79.226 36.1435 77.132 37.8811 74.236 37.8811C71.1172 37.8811 70.0034 36.6336 69.7806 34.3614H64.8797C64.9243 36.6336 65.7262 38.4603 67.1965 39.7523C68.845 41.1335 71.2509 41.8909 74.3251 41.8909C77.2656 41.8909 79.6715 41.0444 81.3646 39.485C83.1022 37.792 84.0823 35.3415 84.0823 32.0891V11.238H79.226V21.9755Z" fill="#FF4124"/>
</svg>
