<svg width="100" height="100" viewBox="0 0 100 100" fill="none" xmlns="http://www.w3.org/2000/svg">
<path d="M47.6667 33.5294C47.6667 31.5802 46.0997 30 44.1667 30H25.5C23.567 30 22 31.5802 22 33.5294V66.4706C22 68.4198 23.567 70 25.5 70C27.433 70 29 68.4198 29 66.4706V55.8824H44.1667C46.0997 55.8824 47.6667 54.3022 47.6667 52.3529V33.5294Z" fill="#F2994A"/>
<path d="M78 33.5294C78 31.5802 76.433 30 74.5 30H55.8333C53.9003 30 52.3333 31.5802 52.3333 33.5294V66.4706C52.3333 68.4198 53.9003 70 55.8333 70C57.7663 70 59.3333 68.4198 59.3333 66.4706V55.8824H74.5C76.433 55.8824 78 54.3022 78 52.3529V33.5294Z" fill="#F2994A"/>
</svg>
