<svg width="100" height="100" viewBox="0 0 100 100" fill="none" xmlns="http://www.w3.org/2000/svg">
<path d="M18.5964 58.8116C18.5964 57.4147 18.976 56.443 19.7352 55.8964C20.4944 55.3194 21.4205 55.0309 22.5137 55.0309C23.5766 55.0309 24.4876 55.3194 25.2467 55.8964C26.0059 56.443 26.3855 57.4147 26.3855 58.8116C26.3855 60.1477 26.0059 61.1194 25.2467 61.7268C24.4876 62.3037 23.5766 62.5922 22.5137 62.5922C21.4205 62.5922 20.4944 62.3037 19.7352 61.7268C18.976 61.1194 18.5964 60.1477 18.5964 58.8116ZM18.5964 40.4549C18.5964 39.0581 18.976 38.0863 19.7352 37.5397C20.4944 36.9628 21.4205 36.6743 22.5137 36.6743C23.5766 36.6743 24.4876 36.9628 25.2467 37.5397C26.0059 38.0863 26.3855 39.0581 26.3855 40.4549C26.3855 41.7911 26.0059 42.7628 25.2467 43.3701C24.4876 43.9471 23.5766 44.2356 22.5137 44.2356C21.4205 44.2356 20.4944 43.9471 19.7352 43.3701C18.976 42.7628 18.5964 41.7911 18.5964 40.4549Z" fill="#1ABCFE"/>
<path d="M53.176 47.9707C53.176 41.6392 49.9875 38.6785 43.2461 38.6785C37.6299 38.6785 33.9569 40.7534 32.7032 44.5111C32.3313 45.6255 33.2803 46.6497 34.4551 46.6497H37.6776C38.7338 46.6497 39.5159 45.7701 40.0272 44.846C40.5716 43.8621 41.5672 43.3701 42.9728 43.3701C45.0681 43.3701 45.9791 44.5089 45.9791 46.9686V47.9707L41.1053 48.6539C37.7801 49.1094 35.5026 49.8838 34.0906 50.8859C32.4508 52.0246 31.6309 53.7555 31.6309 55.9419C31.6309 59.9048 34.5916 62.5467 39.01 62.5467C42.7906 62.5467 45.2959 60.8613 46.4802 58.0828C46.5066 58.7713 46.5639 59.4752 46.643 60.2392C46.7472 61.2454 47.6053 62.0001 48.6168 62.0001H51.1649C52.479 62.0001 53.4734 60.7425 53.344 59.4348C53.2361 58.3446 53.176 57.0727 53.176 55.6686V47.9707ZM46.1613 53.3C46.1613 56.0786 44.476 57.9006 41.9707 57.9006C40.1032 57.9006 38.9189 56.8529 38.9189 55.1676C38.9189 53.4367 40.2398 52.4801 43.2461 51.9335L46.1613 51.478V53.3Z" fill="#1ABCFE"/>
<path d="M62.9248 28.9763C61.8203 28.9763 60.9248 29.8717 60.9248 30.9763V60.0001C60.9248 61.1046 61.8203 62.0001 62.9248 62.0001H65.4111C66.4148 62.0001 67.2631 61.2561 67.394 60.261L67.6207 58.5383C68.7139 61.0891 71.3102 62.5467 74.3621 62.5467C80.3747 62.5467 83.4721 57.7639 83.4721 50.567C83.4721 43.5523 80.4658 38.6785 74.4987 38.6785C71.3558 38.6785 69.0327 40.2727 67.9851 42.368V30.9763C67.9851 29.8717 67.0897 28.9763 65.9851 28.9763H62.9248ZM67.8029 49.7016C67.8029 46.2398 69.3971 43.7345 71.9024 43.7345C74.7265 43.7345 76.2296 46.4675 76.2296 50.567C76.2296 54.8032 74.6809 57.4906 72.039 57.4906C69.3971 57.4906 67.8029 54.9398 67.8029 51.5236V49.7016Z" fill="#1ABCFE"/>
</svg>
